<svg xmlns="http://www.w3.org/2000/svg" id="레이어_1" viewBox="0 0 499.1 499.1"><defs><style>.cls-2{fill:#0099d9}</style></defs><ellipse cx="249.55" cy="249.69" rx="243.43" ry="245.41" style="fill:#fff"/><path d="M249.55 0C111.98 0-.02 111.94-.02 249.54s112 249.53 249.57 249.53 249.54-111.92 249.54-249.53S387.15 0 249.55 0m0 492.14c-134 0-242.6-108.61-242.6-242.6S115.57 6.95 249.55 6.95s242.59 108.61 242.59 242.59-108.61 242.6-242.59 242.6" class="cls-2"/><path d="M66.98 249.54c0 100.65 81.92 182.53 182.57 182.53s182.52-81.88 182.52-182.53S350.19 67.07 249.55 67.07 66.98 148.9 66.98 249.54m362.38 0c0 99.18-80.68 179.86-179.85 179.86S69.69 348.72 69.69 249.54 150.37 69.69 249.55 69.69 429.4 150.37 429.4 249.54Z" class="cls-2"/><path d="m244.51 131.8-4.27.81-4.02 1.29-3.75 1.74-3.46 2.17-3.15 2.56-3.26 3.55-2 2.64-2.06 3.56-1.66 3.84-1.21 4.08-.75 4.3-.25 4.49.27 4.5.76 4.32 1.23 4.1 1.67 3.84 2.08 3.56 2.47 3.26 2.82 2.92 3.17 2.55 3.47 2.15 3.76 1.74 4.02 1.27 4.28.79 4.5.26 3.88-.26 3.79-.66 3.62-1.05 3.44-1.42 3.23-1.77 3-2.11 2.74-2.42 2.45-2.73 2.15-3.01 1.82-3.28 1.45-3.55 1.08-3.79.65-4.92.01-3.03-.06-4.06h-32.04v9.17h23.14l-3.31 6.84-3.41 4.37-2.13 1.91-3.54 2.38-3.84 1.85-4.01 1.25-4.1.55-3.18-.18-3.02-.57-2.88-.92-2.72-1.25-2.53-1.57-2.31-1.85-2.08-2.13-1.83-2.36-1.54-2.59-1.24-2.79-.91-2.96-.59-3.26-.18-3.09.18-3.22.56-3.11.9-2.95 1.23-2.78 1.53-2.59 1.81-2.37 2.08-2.12 2.3-1.87 2.53-1.57 2.71-1.27 2.88-.94 3.02-.58 3.12-.2 3.26.29 3.23.77 4.6 2.05 5.87 4.13.72.63 7.18-6.87-3.95-3.31-3.05-2.09-5.51-2.81-3.94-1.38-5.48-1.02-2.91-.13zM279.14 262.22l-1.64-1.59-1.43-1.77-1.21-1.95-.96-2.09-.72-2.23-.58-4.71-.01-34.08h-10.97l.11 35.89.14 2.13.7 3.52 1.13 3.36 1.53 3.17 1.9 2.94 2.24 2.71 2.55 2.43 2.84 2.13 3.1 1.8 3.32 1.44 3.51 1.07 3.69.65 3.83.22 3.63-.24 3.53-.66 3.43-1.08 3.28-1.46 3.09-1.82 2.87-2.15 2.61-2.46 2.29-2.72 1.95-2.97 1.57-3.18 1.16-3.36.82-5.11.14-2.08V213.8h-10.97l-.15 36.32-.45 2.36-.73 2.24-.99 2.11-1.22 1.94-1.44 1.78-1.64 1.59-1.81 1.38-1.97 1.18-2.09.94-2.22.69-2.31.44-2.36.15-2.48-.14-2.37-.41-2.27-.67-2.15-.93-1.99-1.17zM237.71 264.07l-2.15-3.3c-6.21-9.48-12.53-16.76-18.65-23.79s-12.31-14.16-18.49-23.51h-12.5v63.45h9.35v-50.75l2.16 3.37c6.11 9.5 12.34 16.78 18.37 23.83s12.18 14.18 18.18 23.55h12.9v-63.45h-9.17ZM192.55 359.07c13.16-6.15 4.59-30.19-2.13-37.12-.85 7.76-7.27 23.31-3 32.14-8.95-4-24.31 2.82-32 3.89 7.08 6.56 31.35 14.45 37.13 1.09" class="cls-2"/><path d="M174.12 344.7c13.33-5.4 6.11-29.61-.17-36.81-1.22 7.44-8.05 21.91-4.91 30.93-8.45-4.44-23.77.18-31.3.28 6.24 7.28 29.07 17.97 36.38 5.6" class="cls-2"/><path d="M158.18 327.91c13.48-4.13 8.5-28.39 3-35.95-1.77 6.94-9.27 19.89-7.62 28.94-7.68-5.07-22.53-3.26-29.61-4.36 4.79 8.04 25.14 22.14 34.23 11.37" class="cls-2"/><path d="M146.86 310.36c11.93-4.08 6.79-25.61 1.64-32.22-1.32 6-7.12 16.95-6.17 24.93-6.73-4.39-19.15-4.05-25.08-5.51 3.64 7.51 20.73 21.69 29.61 12.8" class="cls-2"/><path d="M136.58 291.96c10.15-2.31 7.79-20.44 4.14-26.31-1.6 4.78-7.32 13.3-7.23 19.94-5.14-4.19-15.38-5-20.12-6.69 2.34 6.5 15.11 19.59 23.21 13.06" class="cls-2"/><path d="M129.18 272.57c10-1.1 9.69-18.68 6.84-24.69-2 4.28-8.13 11.52-9 17.77-4.33-4.59-13.52-7-17.62-9.34 1.1 6.56 11.01 21.09 19.78 16.26" class="cls-2"/><path d="M123.98 254.97c9-.13 10.27-15.88 8.24-21.49-2.13 3.61-8.12 9.46-9.55 14.92-3.43-4.48-11.21-7.58-14.57-10.09.25 5.96 7.5 20.01 15.88 16.66" class="cls-2"/><path d="M120.79 237.49c8.4 1 11.56-13.52 10.37-19-2.36 3-8.32 7.5-10.55 12.22-2.48-4.6-8.68-8.77-11.19-11.64-.89 5.53 3.03 19.87 11.37 18.42" class="cls-2"/><path d="M119.35 221.07c6.85 1.83 11.18-9.84 10.85-14.53-2.36 2.25-8.05 5.37-10.36 9.13-1.59-4.12-6.62-8.2-8.54-10.85-1.17 4.59.99 16.85 8.05 16.25" class="cls-2"/><path d="M119.66 206.33c6.23 1.26 9.45-9.43 8.89-13.61-1.87 2-6.3 4.87-8.38 8.11-1.43-3.57-5.26-7.2-6.71-9.52-1.34 4-.15 15.1 6.2 15.02" class="cls-2"/><path d="M120.41 192.34c5.38-2.06 2.89-15.06.12-18.64-3.02 3.52-6.64 16.61-.12 18.64M205.76 367.26c-9-4.86-24.13 5.85-31.87 8.46 7.84 4.86 32 8 35.14-5.5 11.6-4.49 5.73-25.55.4-31.88-1.28 7.07-8.58 21.4-3.67 28.92M311.67 354.13c4.27-8.83-2.15-24.38-3-32.14-6.72 6.93-15.28 31-2.12 37.12 5.77 13.32 30 5.43 37.15-1.09-7.72-1.07-23.09-7.95-32.03-3.89" class="cls-2"/><path d="M330.05 338.82c3.14-9-3.69-23.49-4.9-30.93-6.29 7.2-13.51 31.42-.17 36.81 7.3 12.39 30.18 1.68 36.38-5.6-7.54-.1-22.86-4.72-31.31-.28" class="cls-2"/><path d="M337.98 291.96c-5.52 7.56-10.49 31.82 3 35.95 9.09 10.77 29.45-3.33 34.24-11.37-7.08 1.09-21.93-.71-29.61 4.36 1.58-9.05-5.91-22-7.63-28.94" class="cls-2"/><path d="M350.59 278.14c-5.15 6.61-10.29 28.14 1.64 32.22 8.94 8.89 26-5.26 29.61-12.8-5.93 1.46-18.35 1.12-25.08 5.51.95-8-4.85-19-6.17-24.93" class="cls-2"/><path d="M362.51 291.96c8.1 6.53 20.87-6.56 23.21-13.06-4.74 1.71-15 2.5-20.12 6.69.09-6.64-5.63-15.16-7.22-19.94-3.66 5.87-6.02 24 4.13 26.31" class="cls-2"/><path d="M369.91 272.57c8.77 4.83 18.68-9.7 19.81-16.26-4.1 2.35-13.29 4.75-17.62 9.34-.9-6.25-7-13.49-9-17.77-2.88 6.01-3.12 23.59 6.81 24.69M293.33 367.26c4.91-7.52-2.39-21.85-3.67-28.92-5.33 6.33-11.2 27.39.4 31.88 3.16 13.46 27.31 10.36 35.14 5.5-7.74-2.65-22.82-13.32-31.87-8.46M244.11 104.13c-19.5 10.95-55.49 25.78-92.75 31.49l-9.38 1.45v56.13a165 165 0 0 0 103.43 153.12l4.14 1.66 4.13-1.66A165 165 0 0 0 357.14 193.2v-56.13l-9.41-1.45c-37.26-5.71-73.25-20.55-92.75-31.49l-5.43-3.06Zm102.31 40.07 2.05.31v48.69a156.38 156.38 0 0 1-98 145.07l-.9.36-.9-.36a156.34 156.34 0 0 1-98-145.07v-48.69l2-.31c38.41-5.89 75.55-21.2 95.68-32.51l1.19-.67 1.18.67c20.15 11.31 57.26 26.62 95.7 32.51M269.86 377.82a22.45 22.45 0 0 0-16.88-12.69l-3.39-5.57-3.4 5.57a22.42 22.42 0 0 0-16.91 12.69h-9l7.29 5.26a22.41 22.41 0 0 0 12.66 24.58l1.8-3.69a18.33 18.33 0 0 1-10.76-16.68c0-.53 0-1.05.07-1.57h18.31v11.66l18.12-12.13a17 17 0 0 1 .12 2 18.34 18.34 0 0 1-10.77 16.68l1.81 3.68a22.42 22.42 0 0 0 13.05-20.32 22 22 0 0 0-.47-4.55l7.36-4.92Zm-36 0a18.31 18.31 0 0 1 31.34 0Z" class="cls-2"/><path d="M375.15 254.97c8.35 3.35 15.59-10.7 15.88-16.66-3.36 2.51-11.14 5.61-14.57 10.09-1.43-5.46-7.42-11.31-9.55-14.92-2.03 5.59-.75 21.36 8.24 21.49" class="cls-2"/><path d="M378.3 237.49c8.34 1.45 12.27-12.89 11.37-18.44-2.51 2.87-8.71 7-11.18 11.64-2.23-4.72-8.2-9.22-10.55-12.22-1.2 5.5 1.96 20.03 10.36 19.02" class="cls-2"/><path d="M379.74 221.07c7.06.57 9.23-11.69 8.05-16.25-1.92 2.65-6.95 6.73-8.54 10.85-2.31-3.76-8-6.88-10.35-9.13-.34 4.72 4 16.39 10.84 14.53" class="cls-2"/><path d="M379.43 206.33c6.36.08 7.54-11 6.2-15-1.45 2.32-5.27 5.95-6.71 9.52-2.08-3.24-6.51-6.09-8.37-8.11-.57 4.16 2.66 14.85 8.88 13.59" class="cls-2"/><path d="M378.68 192.34c6.52-2 2.9-15.12-.11-18.64-2.77 3.58-5.27 16.58.11 18.64" class="cls-2"/><circle cx="77.43" cy="371.88" r="5.39" class="cls-2"/><path d="M421.67 366.49a5.39 5.39 0 1 0 5.39 5.39 5.39 5.39 0 0 0-5.39-5.39M120.36 400.4l-4.2-3.69-2.69 3.06 4.2 3.69-2.33 2.65-4.21-3.69-2.69 3.06 4.21 3.69-2.84 3.23 3.67 3.23 13.35-15.19-3.67-3.22zM94.28 394.51l-.93 4.13c6.78 2.06 14.22 3.53 18.15-.93l4.79-5.45-11.1-9.76-2.69 3.06 7.4 6.51-2.06 2.34c-.8.91-2.67 3.04-13.56.1M104.2 408.92c-5.65-5-11.11-5.7-14.43-1.93s-1.9 9.1 3.75 14.07 11.12 5.71 14.44 1.93 1.9-9.1-3.76-14.07m.07 10.83c-1.64 1.87-4.69 1.2-8-1.75s-4.41-5.89-2.76-7.76 4.69-1.21 8.05 1.75 4.35 5.89 2.71 7.76M258.23 443.9h4.89v19.23h-4.89zM258.23 469.82h-10.55v-4.42h-4.89v15.27h20.32V465.4h-4.88Zm0 7.27h-10.55v-3.69h10.55ZM252.32 459.13h-11.45v-3.58h11.45v-11.14h-16.34v3.88h11.45v3.38h-11.45V463h16.34zM292.5 458.98l-3.72-14.01 8.96-2.39-1.05-3.94-13.68 3.65 5.82 21.88 13.69-3.64-1.05-3.94zM308.25 435.04l2.92 10.97-3.44.91-2.92-10.97-4.72 1.26 9.45 35.54 4.72-1.26-5.48-20.63 3.43-.91 5.49 20.63 4.73-1.26-9.46-35.54zM404.39 407.79l-8.95-9.76-3.6 3.3 8.95 9.77-3.09 2.82-8.95-9.77-3.6 3.31 8.95 9.76-5.13 4.7 2.75 3 24.64-22.56-2.75-3.01z" class="cls-2"/><path d="m404.32 400.97 3.6-3.3-13.89-15.17-19.41 17.78 2.62 2.87 15.81-14.48zM363.12 418l-4.89 2.72-3.72-6.69-4.27 2.37 9.53 17.16 4.28-2.37-3.84-6.91 4.89-2.72zM352.2 428.59a7.61 7.61 0 0 0-5.25-4l-.28-.06 3.82-2.12-2-3.56-7 3.9-2.06-3.7-4.27 2.38 2.06 3.7-7 3.9 2 3.57 3.81-2.12-.1.26a7.65 7.65 0 0 0 .62 6.56c2.36 4.24 7.09 5.33 11.79 2.72s6.21-7.2 3.86-11.43m-5.88 7.91a4.22 4.22 0 1 1 1.58-5.71 4 4 0 0 1-1.58 5.71M346.89 444.33l1.88 3.39 14.42-8.01 4.91 8.84 4.28-2.37-6.8-12.24zM211.28 440.99l-22.36-6.07-1.06 3.92 17.64 4.79-2.39 8.78-21.18-5.75-1.06 3.92 11.29 3.07-1.35 4.95-7.75-2.1-1.06 3.92 18.5 5.02-2.5 9.2 4.72 1.28 3.56-13.12-10.75-2.92 1.35-4.95 14.29 3.88 1.06-3.92-4.4-1.2zM146.12 438.82c-6.56-3.71-12-3.31-14.53 1.07s0 9.3 6.56 13 12.05 3.3 14.52-1.07 0-9.29-6.55-13m2.28 10.59c-1.23 2.16-4.35 2.14-8.24-.07s-5.52-4.86-4.29-7 4.34-2.14 8.23.06 5.52 4.84 4.3 7.01M166.53 425.89l-4.26-2.41-9.96 17.6 4.25 2.41 4.19-7.39 4.87 2.76 2.01-3.55-4.88-2.76zM150.73 423.07l2.2-3.89-4.38-2.48-2.2 3.89c-1.86 3.29-2.86 4.28-13.15 4.91l.27 4.49c4.49-.27 8.14-.55 10.77-1.37h.1v.09l3.44 9.38 4.49-1.63-3.76-10.39h.05a14.5 14.5 0 0 0 2.17-3M52.09 322.44l-1.57.71 5.86 13.12 3.68-1.65-3.92-8.77c3.71-.94 7.52 1.08 9.27 5a9 9 0 0 1 .3 7 9.4 9.4 0 0 1-5 5c-4.93 2.21-9.9.37-12.06-4.47-1.54-3.44-1-7.27 1.22-9.31l.34-.31-2-4.34-.64.52c-4.18 3.45-5.3 9.55-2.77 15.2a12.93 12.93 0 0 0 11.88 8.06 14.2 14.2 0 0 0 5.8-1.28 13 13 0 0 0 6.74-17.69c-3.12-6.96-10.33-9.83-17.13-6.79M59.5 304.43l-1.2-4.33-8.29 2.31-19.18-5.4 1.32 4.74 14.18 3.88-10.2 10.43 1.37 4.9 13.7-14.22zM51.97 264.67l-4.06.53 1.85 14.26-6.89.89-1.67-12.94-4.06.53 1.67 12.94-6.34.82-1.81-14-4.06.53 2.38 18.42 25.42-3.29zM38.54 257.89h.32c7.58 0 13.16-5.51 13.32-13.22s-5.35-13.57-13.1-13.73a13.2 13.2 0 0 0-9.65 3.65 14.13 14.13 0 0 0-.39 19.27 13.35 13.35 0 0 0 9.5 4.03m.23-22.49h.21a8.8 8.8 0 0 1 9 9.19c-.1 5.23-4 8.92-9.37 8.84a9.3 9.3 0 0 1-6.56-2.68 9.43 9.43 0 0 1 .26-12.92 9.23 9.23 0 0 1 6.46-2.43M53.73 218.84l-17.6-3.28 19.98-10.31.72-3.89-25.18-4.69-.82 4.41 17.6 3.28-19.98 10.32-.72 3.86 25.19 4.69zM46.83 189.37a14.5 14.5 0 0 0 4.92.89 12.6 12.6 0 0 0 5.36-1.18 13.38 13.38 0 0 0 6.85-7.75c2.61-7.2-.57-14.27-7.57-16.8l-1.63-.59-4.9 13.5 3.8 1.38 3.27-9c3.31 1.9 4.66 6 3.2 10a9 9 0 0 1-4.67 5.25 9.93 9.93 0 0 1-12.48-4.52 8.9 8.9 0 0 1-.22-7c1.29-3.55 4.26-6 7.35-5.85h.46l1.62-4.48-.83-.06c-5.4-.44-10.44 3.18-12.55 9a12.94 12.94 0 0 0 8.02 17.21M54.61 152.84c4.59 2.53 8.17-.58 11.07-3.95 3.59-4.16 5.26-5.11 7.15-4.07s1.93 3.69.34 6.58c-1.73 3.15-4.49 4.51-7 3.47l-.53-.22-2.18 4 .62.29a8.4 8.4 0 0 0 3.55.79c3.46 0 6.81-2.2 9-6.17a12.8 12.8 0 0 0 1.73-7.31 6.81 6.81 0 0 0-3.49-5.45c-3.55-1.95-7.09-.67-11.14 4-3.51 4.08-5.19 5.08-6.94 4.12s-1.73-3.36-.16-6.21 4-4.09 6.33-3.19l.51.2 2.18-4-.62-.28c-4.23-1.95-9.09.18-11.84 5.17a12.6 12.6 0 0 0-1.78 7.07 6.18 6.18 0 0 0 3.2 5.16M86.8 135.81l-3.33-5.57 6.55-8.66 6.27 1.7 2.94-3.88-26.78-7.09-2.55 3.37 14.08 23.89Zm-1-15.4-4.58 6.05-5.24-8.73ZM107.03 111.27 94.57 98.4l22.27 3.16 2.84-2.75-17.82-18.41-3.22 3.12 12.45 12.87-22.27-3.16L86 95.96l17.83 18.41zM129.2 89.14a13.76 13.76 0 0 0 7.86-2.57 13.47 13.47 0 0 0 5.67-8.33 12.64 12.64 0 0 0-2.14-9.78l-1-1.42-11.81 8.2 2.31 3.32 7.89-5.49c1.61 3.46.34 7.59-3.18 10-4.38 3.05-9.62 2.05-12.73-2.42s-2.2-9.66 2.15-12.69c3.1-2.15 6.95-2.37 9.38-.53l.37.27 3.91-2.71-.64-.53c-4.16-3.48-10.37-3.44-15.46.1a13.51 13.51 0 0 0 7.41 24.54ZM170.65 67.08l-6.58-16.65 19.35 11.43 3.68-1.45-9.42-23.82-4.17 1.65 6.58 16.65-19.35-11.43-3.65 1.44 9.41 23.82zM198.43 51.21l10.55-2.43 3.72 5.33 4.75-1.09-16-22.64-4.12.95-4.56 27.35 4.6-1.05Zm.68-4.36 1.6-10.05 5.8 8.35ZM224.68 30.76l2.18 21.37 4.43-.45-2.18-21.38 8.68-.89-.42-4.1-21.82 2.24.42 4.1zM246.785 25.26l4.46-.074.424 25.607-4.459.074zM272.45 52.71a15 15 0 0 0 1.74.1 13.53 13.53 0 0 0 10.44-21.8 14.14 14.14 0 0 0-19.15-2.2 13.87 13.87 0 0 0-2.18 19 13.6 13.6 0 0 0 9.15 4.9m2.53-22.41a8.81 8.81 0 0 1 7.92 10.16 9.3 9.3 0 0 1-3.3 6.27 9.37 9.37 0 0 1-12.82-1.48 9.83 9.83 0 0 1 1.5-13.14 8.73 8.73 0 0 1 5.53-1.88 9 9 0 0 1 1.17.07M302.01 39.26l8.46 20.85 3.8 1.08 6.98-24.67-4.32-1.22-4.88 17.24-8.45-20.85-3.78-1.07-6.97 24.67 4.29 1.21zM324.06 65.18l4.7-4.47 9.88 4.48-.27 6.49 4.43 2 1-27.68-3.82-1.73-20.2 19Zm7.89-7.53 7.36-7-.46 10.15ZM365.33 82.83 354 75.7l11.43-18.17-3.77-2.38-13.65 21.7 15.1 9.5zM394.21 110.07a11.83 11.83 0 0 0 8.48-4l10.07-10.43-3.21-3.1-10.06 10.43c-3.23 3.34-7.09 3.61-10.11.7s-2.9-6.8.31-10.14l10.07-10.46-3.21-3.1-10.06 10.44a11.93 11.93 0 0 0-3.68 8.23 12.12 12.12 0 0 0 11.4 11.43M404.07 124.89l14.33-10.75-5.92 21.7 2.37 3.16 20.49-15.38-2.69-3.59-14.33 10.75 5.92-21.7-2.35-3.14-20.5 15.38zM419.932 147.984l22.185-12.834 2.233 3.86-22.185 12.835zM432.34 172.64l27.81-.18-1.88-4.36-21.21.22 14.74-15.25-1.93-4.48-19.24 20.09zM443.63 208.34l3.96-1.04-3.64-13.92 6.72-1.75 3.3 12.62 3.97-1.04-3.31-12.62 6.19-1.62 3.57 13.65 3.97-1.03-4.7-17.97-24.8 6.48zM445.71 221.57l8.56-.95.59 5.27c0 .34.09.68.15 1l-8 6.45.59 5.26 8.88-7.36a8.24 8.24 0 0 0 13.86.54 11.9 11.9 0 0 0 1.43-7.79l-1.08-9.7-25.48 2.83Zm21.3 7.37a3.78 3.78 0 0 1-3 1.91 3.75 3.75 0 0 1-3.38-1.19 8 8 0 0 1-1.66-4.47l-.56-5 8.72-1 .56 5a8 8 0 0 1-.71 4.75ZM471.98 249.41a6.24 6.24 0 0 0-5.19-3.12h-.3c-5 0-6.75 4.31-7.79 8.55-1.32 5.32-2.4 6.87-4.53 6.86s-3.4-2.42-3.29-5.71c.12-3.6 2-6.06 4.7-6.28h.56l.15-4.53h-.68c-5 .19-8.55 4.4-8.75 10.47a12.8 12.8 0 0 0 1.76 7.3 6.8 6.8 0 0 0 5.58 3.28c4.06.12 6.62-2.61 8.12-8.63 1.25-5.12 2.29-6.81 4.2-6.81h.12a2.57 2.57 0 0 1 2.13 1.35 7.46 7.46 0 0 1 .82 4.11c-.1 3.24-1.75 5.48-4.2 5.71l-.55.06-.15 4.51h.68c4.65-.18 8-4.28 8.22-10a12.65 12.65 0 0 0-1.61-7.12M445.133 279.53l.635-4.414 25.349 3.648-.635 4.414zM462.46 302.25l-20.81-5.44-1.12 4.32 20.8 5.43-2.21 8.45 3.99 1.04 5.55-21.23-3.99-1.04zM432.28 325.12l-1.78 4.13 7.9 3.41 11.52 16.25 1.95-4.52-8.59-11.92 14.48-1.71 2.02-4.67-19.6 2.45z" class="cls-2"/></svg>