<svg xmlns="http://www.w3.org/2000/svg" width="216.11" height="98.600822" viewBox="0 0 216.11 98.600822"><g fill="#2a376d"><path d="M0 32.22a32.23 32.23 0 1 1 32.23 32.24A32.23 32.23 0 0 1 0 32.22Zm32.23 15.77a15.79 15.79 0 1 0-15.79-15.77 15.78 15.78 0 0 0 15.79 15.77ZM161.07 59.81h55.04V43.55h-38.78V21.12h38.78V4.86h-55.04zM138.82 61.46l12.46-10.45-40.77-48.33-40.49 48.17L82.47 61.3l28.04-33.36zM20.74 82.99l-3.19 15.32h-2.86l-1.89-10.7h-.05l-1.95 10.7h-3L4.61 82.99h3.5l.64 3 .75 6.8h.05l1.79-9.8h2.84L16 93.24h.05l.67-6.69a26.28 26.28 0 0 1 .67-3.6zM22.93 90.56a11.42 11.42 0 0 1 .73-4.73 5.91 5.91 0 0 1 1.93-2.34 5.24 5.24 0 0 1 3-.83 5.32 5.32 0 0 1 2.44.48 5.78 5.78 0 0 1 1.73 1.41A5.84 5.84 0 0 1 34 86.84a14.17 14.17 0 0 1 .37 3.62q0 4.62-1.6 6.37a5.34 5.34 0 0 1-4.13 1.76 5.13 5.13 0 0 1-4.13-1.82q-1.57-1.78-1.58-6.21Zm3.63-.92v1a19 19 0 0 0 .16 3.17 2 2 0 0 0 .7 1.2 2 2 0 0 0 1.29.44 1.7 1.7 0 0 0 1.12-.46 2.33 2.33 0 0 0 .71-1.3 16.44 16.44 0 0 0 .2-3.11 16.79 16.79 0 0 0-.17-2.85 2.63 2.63 0 0 0-.69-1.38 1.72 1.72 0 0 0-1.27-.52 1.63 1.63 0 0 0-1.57.91 6.64 6.64 0 0 0-.48 2.9zM37.49 90.56a11.42 11.42 0 0 1 .73-4.73 5.91 5.91 0 0 1 1.93-2.34 5.24 5.24 0 0 1 3-.83 5.32 5.32 0 0 1 2.44.48 5.78 5.78 0 0 1 1.73 1.41 5.84 5.84 0 0 1 1.17 2.29 14.17 14.17 0 0 1 .37 3.62q0 4.62-1.6 6.37a5.34 5.34 0 0 1-4.13 1.76A5.13 5.13 0 0 1 39 96.77c-1-1.2-1.51-3.27-1.51-6.21zm3.63-.92v1a19 19 0 0 0 .16 3.17 2 2 0 0 0 .72 1.18 2 2 0 0 0 1.29.44 1.7 1.7 0 0 0 1.1-.44 2.33 2.33 0 0 0 .71-1.3 16.44 16.44 0 0 0 .2-3.11 16.79 16.79 0 0 0-.17-2.85 2.63 2.63 0 0 0-.69-1.38 1.72 1.72 0 0 0-1.27-.52 1.63 1.63 0 0 0-1.57.91 6.5 6.5 0 0 0-.48 2.9zM60.46 87.37a3.72 3.72 0 0 0-2.6-1.54 1.6 1.6 0 0 0-1 .35 1 1 0 0 0-.44.79c0 .53.46 1.16 1.38 1.88a18.4 18.4 0 0 1 2.05 1.75 5 5 0 0 1 1 1.5 4.72 4.72 0 0 1 .35 1.89 4.39 4.39 0 0 1-1.34 3.3 4.76 4.76 0 0 1-3.45 1.29A5.58 5.58 0 0 1 53 97.33v-3.6a4.47 4.47 0 0 0 3.17 1.68 1.88 1.88 0 0 0 1.22-.42 1.13 1.13 0 0 0 .47-.93c0-.54-.41-1.15-1.22-1.82a18.12 18.12 0 0 1-2.55-2.39 5.81 5.81 0 0 1-.9-1.59 4.54 4.54 0 0 1-.3-1.61 3.7 3.7 0 0 1 1.29-2.9 4.76 4.76 0 0 1 3.27-1.15 6.08 6.08 0 0 1 3 .86zM65.21 90.56a11.42 11.42 0 0 1 .73-4.73 5.91 5.91 0 0 1 1.93-2.34 5.26 5.26 0 0 1 3-.83 5.32 5.32 0 0 1 2.44.48 5.63 5.63 0 0 1 1.72 1.41 5.84 5.84 0 0 1 1.17 2.29 14.17 14.17 0 0 1 .37 3.62q0 4.62-1.6 6.37a5.34 5.34 0 0 1-4.13 1.76 5.13 5.13 0 0 1-4.13-1.82q-1.5-1.78-1.5-6.21Zm3.63-.92v1a18.62 18.62 0 0 0 .16 3.15 2 2 0 0 0 .7 1.2 2 2 0 0 0 1.29.44 1.65 1.65 0 0 0 1.12-.44 2.28 2.28 0 0 0 .71-1.3 15.62 15.62 0 0 0 .18-3.1 16.79 16.79 0 0 0-.17-2.85 2.7 2.7 0 0 0-.69-1.38 1.72 1.72 0 0 0-1.27-.52 1.63 1.63 0 0 0-1.57.91 6.5 6.5 0 0 0-.46 2.89ZM91 98.31h-3.64l-4.06-9.67v9.67h-3.39V82.99h3.76l4 9.53h.07v-9.53H91ZM105.77 92.13a8.53 8.53 0 0 1-.49 2.51 6.11 6.11 0 0 1-1.87 2.75 4.81 4.81 0 0 1-3.28 1.21q-5.86 0-5.86-8.07a9.56 9.56 0 0 1 1.53-5.84 5.1 5.1 0 0 1 4.33-2q4.05 0 4.89 3.79l-3 1.25c-.06-1.38-.71-2.06-2-2.06a1.85 1.85 0 0 0-1.32.48 2.37 2.37 0 0 0-.66 1.35 19.24 19.24 0 0 0-.16 3 22.28 22.28 0 0 0 .17 3.37 2.38 2.38 0 0 0 .68 1.38 1.91 1.91 0 0 0 1.33.46c1.28 0 2-1 2.05-3H100v-3h5.72v2.49zM131.53 97.99a7.12 7.12 0 0 1-2.92.59 6.37 6.37 0 0 1-4.81-2 8.2 8.2 0 0 1-1.93-5.89q0-4 1.9-6a5.94 5.94 0 0 1 4.45-2 7.56 7.56 0 0 1 3.25.83v3.17a9.74 9.74 0 0 0-1.74-.74 3.89 3.89 0 0 0-.85-.09 3.17 3.17 0 0 0-2.36 1.07 5.33 5.33 0 0 0-1 3.68c0 1.83.33 3.09 1 3.79a3.22 3.22 0 0 0 2.45 1 4.8 4.8 0 0 0 2.59-.92v3.51ZM135.82 90.56a11.42 11.42 0 0 1 .73-4.73 5.91 5.91 0 0 1 1.93-2.34 5.26 5.26 0 0 1 3-.83 5.32 5.32 0 0 1 2.44.48 5.91 5.91 0 0 1 1.73 1.41 5.7 5.7 0 0 1 1.16 2.29 14.17 14.17 0 0 1 .37 3.62q0 4.62-1.6 6.37a5.34 5.34 0 0 1-4.13 1.76 5.13 5.13 0 0 1-4.13-1.82q-1.5-1.78-1.5-6.21zm3.63-.92v1a19 19 0 0 0 .16 3.17 2 2 0 0 0 .7 1.2 2 2 0 0 0 1.29.44 1.67 1.67 0 0 0 1.11-.43 2.33 2.33 0 0 0 .71-1.3 15.62 15.62 0 0 0 .2-3.11 16.79 16.79 0 0 0-.17-2.85 2.63 2.63 0 0 0-.69-1.38 1.72 1.72 0 0 0-1.27-.52 1.64 1.64 0 0 0-1.57.91 6.67 6.67 0 0 0-.47 2.87zM159.34 98.31h-7.41V82.99h3.43v12.34h4v3zM172.41 98.31H165V82.99h3.43v12.34h4v3zM185.73 98.31h-7.91V82.99h7.41v3h-4v3.12h3.43v2.83h-3.43v3.46h4.48zM202.34 92.13a8.53 8.53 0 0 1-.49 2.51 6.11 6.11 0 0 1-1.85 2.75 4.81 4.81 0 0 1-3.28 1.21q-5.87 0-5.86-8.07a9.56 9.56 0 0 1 1.53-5.84 5.1 5.1 0 0 1 4.33-2q4.05 0 4.89 3.79l-3 1.25c-.06-1.38-.71-2.06-2-2.06a1.85 1.85 0 0 0-1.32.48 2.37 2.37 0 0 0-.66 1.35 19.61 19.61 0 0 0-.15 3 21 21 0 0 0 .17 3.37 2.38 2.38 0 0 0 .68 1.38 1.91 1.91 0 0 0 1.33.46c1.28 0 2-1 2-3h-2.09v-3h5.72v2.49zM215.36 98.31h-7.91V82.99h7.42v3h-4v3.12h3.44v2.83h-3.44v3.46h4.48v3z"/></g></svg>